Coordinates
version=1
nRows=8
nColumns=34
inDegrees=yes

Units are S.I. units (second, meters, Newtons, ...)
If the header above contains a line with 'inDegrees', this indicates whether rotational values are in degrees (yes) or radians (no).

endheader
time	pelvis_tilt	pelvis_list	pelvis_rotation	pelvis_tx	pelvis_ty	pelvis_tz	hip_flexion_r	hip_adduction_r	hip_rotation_r	knee_angle_r	ankle_angle_r	subtalar_angle_r	mtp_angle_r	hip_flexion_l	hip_adduction_l	hip_rotation_l	knee_angle_l	ankle_angle_l	subtalar_angle_l	mtp_angle_l	lumbar_extension	lumbar_bending	lumbar_rotation	arm_flex_r	arm_add_r	arm_rot_r	elbow_flex_r	pro_sup_r	arm_flex_l	arm_add_l	arm_rot_l	elbow_flex_l	pro_sup_l
     22.27500000	      1.45400699	      1.01973244	   -170.90570188	      0.10738442	      1.01774963	      0.15831630	     47.90949769	     -3.90440054	     -2.59974219	    116.24932178	      1.45564846	    -19.70459794	      0.00000000	      4.76654763	      4.42062828	      2.19899614	     44.59053459	      9.17143068	     -9.91749966	      0.00000000	    -21.34959974	     -2.47743355	    -14.53016118	    -25.48461128	    -20.84441609	      5.33219417	     93.09368172	     89.42523928	     20.07553016	    -26.15509612	      9.18547100	    111.42721098	     82.31206887
     22.28333330	      2.00140606	      1.41551481	   -170.51358569	      0.10422519	      1.02288947	      0.15914842	     49.76728867	     -3.84314518	     -3.61924477	    111.57003246	     -0.76852925	    -24.11302048	      0.00000000	      1.73671873	      3.14825433	      1.99197562	     42.30883634	      5.93659494	     -8.03540580	      0.00000000	    -19.79655681	     -2.16756100	    -15.83667700	    -28.64211249	    -20.85824202	      4.29763617	     95.20991809	     89.86461815	     20.49534147	    -25.38811920	     10.01221070	    115.07314642	     82.77949310
     22.29166670	      2.63163091	      1.57536699	   -170.35155927	      0.10003935	      1.02839531	      0.15933591	     51.65883132	     -3.29990196	     -4.03246832	    106.21214995	      2.64322228	    -24.14907653	      0.00000000	     -1.26767733	      2.11458430	      1.73921599	     39.68262618	      1.73123825	     -5.95006015	      0.00000000	    -18.29887014	     -2.08151385	    -16.99977445	    -31.64888919	    -20.63148001	      3.28220218	     97.07837245	     90.43076970	     20.46511315	    -24.79837141	     10.90446874	    118.53172449	     83.32731405
     22.30000000	      3.17753756	      1.56370851	   -170.34153150	      0.09471674	      1.03470833	      0.15943660	     53.06917249	     -2.73969390	     -4.38396722	     99.94201249	      4.30313475	    -24.33935989	      0.00000000	     -4.53821095	      1.24740506	      1.35540877	     36.53607913	     -2.95864348	     -3.90503367	      0.00000000	    -16.56833338	     -2.33161158	    -18.36167209	    -33.84810945	    -20.55633876	      2.97822781	     97.91243438	     90.69519400	     20.02301281	    -24.34028228	     11.93745313	    120.31637898	     83.59687006
     22.30833330	      3.60995561	      1.16428796	   -170.22697578	      0.08978083	      1.04103987	      0.15986784	     53.90928016	     -2.63490625	     -4.49688771	     93.53132345	      4.80496384	    -23.84911945	      0.00000000	     -7.70683532	      0.87764613	      1.25502180	     33.73581811	     -7.74609646	     -1.85782495	      0.00000000	    -15.21598918	     -2.88983910	    -19.96910797	    -35.76743037	    -20.30196017	      2.49276832	     98.69191353	     90.96951430	     19.49313955	    -24.12658731	     12.80085077	    121.09400750	     83.84547030
     22.31666670	      3.83919544	      0.59781424	   -170.18202212	      0.08489010	      1.04883285	      0.16031886	     53.99432164	     -2.57755675	     -4.41809290	     86.47031814	      4.07273055	    -23.20968047	      0.00000000	    -10.88905195	      0.77501701	      1.27191675	     31.18999379	    -12.64351097	     -0.45642704	      0.00000000	    -14.18604773	     -3.37649794	    -20.32866591	    -38.35412938	    -19.10879977	      0.41919504	     99.02203895	     92.55388872	     22.97877695	    -22.66959294	     15.87872514	    115.40445099	     84.53794862
     22.32500000	      4.08406829	     -0.40896569	   -170.22212703	      0.08082144	      1.05663514	      0.16055094	     53.62001162	     -2.74303571	     -4.09167488	     78.79321924	      1.86514022	    -22.53086497	      0.00000000	    -13.64362583	      1.22524546	      1.50577014	     29.33388186	    -16.83847952	      0.29828909	      0.00000000	    -13.45127058	     -4.36402246	    -22.26016254	    -39.06390993	    -18.79382058	      0.19642325	     99.20958882	     92.83839944	     23.35896232	    -22.58065221	     15.45136373	    111.76300733	     84.39904529
     22.33333330	      3.74662409	     -1.42850595	   -170.34077143	      0.07764595	      1.06489080	      0.16093714	     52.33314584	     -2.89666377	     -3.50814021	     70.94680686	      0.12921387	    -21.91445137	      0.00000000	    -16.30917283	      1.72606450	      1.84689085	     28.72014102	    -20.22330502	     -0.44721326	      0.00000000	    -13.46312424	     -5.54284312	    -23.15298442	    -40.06415597	    -18.28252716	     -0.13855402	     99.32542987	     93.34644968	     24.13027949	    -22.35153340	     16.12012228	    108.43588659	     83.98328421
